<svg width="16" height="16" viewBox="0 0 16 16" fill="none" xmlns="http://www.w3.org/2000/svg">
<path d="M6.85364 1.35205L7.63411 0.571582C7.96458 0.241113 8.49895 0.241113 8.8259 0.571582L15.6603 7.40244C15.9907 7.73291 15.9907 8.26729 15.6603 8.59424L8.8259 15.4286C8.49543 15.7591 7.96106 15.7591 7.63411 15.4286L6.85364 14.6481C6.51965 14.3142 6.52668 13.7692 6.8677 13.4423L11.104 9.40635H1.00012C0.532544 9.40635 0.156372 9.03018 0.156372 8.5626V7.4376C0.156372 6.97002 0.532544 6.59385 1.00012 6.59385H11.104L6.8677 2.55791C6.52317 2.23096 6.51614 1.68604 6.85364 1.35205Z" fill="black"/>
</svg>
