<svg width="24" height="24" fill="none" xmlns="http://www.w3.org/2000/svg">
  <path
    d="M12.64 6.73a5.377 5.377 0 00-5.387 5.387 5.377 5.377 0 005.386 5.386 5.377 5.377 0 005.386-5.386A5.377 5.377 0 0012.64 6.73zm0 8.888a3.508 3.508 0 01-3.502-3.501 3.505 3.505 0 013.501-3.502 3.505 3.505 0 013.502 3.502 3.508 3.508 0 01-3.502 3.501zm6.862-9.107c0 .698-.563 1.256-1.256 1.256a1.256 1.256 0 111.256-1.256zm3.567 1.275c-.08-1.683-.464-3.174-1.697-4.402-1.228-1.228-2.718-1.613-4.401-1.697-1.735-.098-6.933-.098-8.668 0-1.678.08-3.168.464-4.401 1.692-1.233 1.228-1.613 2.719-1.697 4.402-.098 1.734-.098 6.933 0 8.667.08 1.683.464 3.174 1.697 4.402 1.233 1.228 2.719 1.612 4.401 1.697 1.735.098 6.933.098 8.668 0 1.683-.08 3.173-.465 4.401-1.697 1.228-1.229 1.613-2.72 1.697-4.402.099-1.734.099-6.928 0-8.662zm-2.24 10.523a3.545 3.545 0 01-1.997 1.997c-1.383.548-4.664.422-6.193.422-1.528 0-4.814.122-6.192-.422a3.545 3.545 0 01-1.997-1.997c-.548-1.383-.422-4.664-.422-6.192 0-1.528-.121-4.814.422-6.192a3.545 3.545 0 011.997-1.997c1.383-.549 4.664-.422 6.192-.422 1.529 0 4.814-.122 6.193.422a3.545 3.545 0 011.996 1.997c.549 1.382.422 4.664.422 6.192 0 1.528.127 4.814-.422 6.192z"
    fill="#D4D4D4" />
</svg>