<svg width="24" height="25" viewBox="0 0 24 25" fill="none" xmlns="http://www.w3.org/2000/svg">
  <path
    d="M12.0047 6.66982C9.02346 6.66982 6.61877 9.07451 6.61877 12.0558C6.61877 15.037 9.02346 17.4417 12.0047 17.4417C14.986 17.4417 17.3906 15.037 17.3906 12.0558C17.3906 9.07451 14.986 6.66982 12.0047 6.66982ZM12.0047 15.5573C10.0781 15.5573 8.50315 13.987 8.50315 12.0558C8.50315 10.1245 10.0735 8.5542 12.0047 8.5542C13.936 8.5542 15.5063 10.1245 15.5063 12.0558C15.5063 13.987 13.9313 15.5573 12.0047 15.5573ZM18.8672 6.44951C18.8672 7.14795 18.3047 7.70576 17.611 7.70576C16.9125 7.70576 16.3547 7.14326 16.3547 6.44951C16.3547 5.75576 16.9172 5.19326 17.611 5.19326C18.3047 5.19326 18.8672 5.75576 18.8672 6.44951ZM22.4344 7.72451C22.3547 6.0417 21.9703 4.55107 20.7375 3.32295C19.5094 2.09482 18.0188 1.71045 16.336 1.62607C14.6016 1.52764 9.40315 1.52764 7.66877 1.62607C5.99065 1.70576 4.50002 2.09014 3.26721 3.31826C2.0344 4.54639 1.65471 6.03701 1.57033 7.71982C1.4719 9.4542 1.4719 14.6526 1.57033 16.387C1.65002 18.0698 2.0344 19.5605 3.26721 20.7886C4.50002 22.0167 5.98596 22.4011 7.66877 22.4855C9.40315 22.5839 14.6016 22.5839 16.336 22.4855C18.0188 22.4058 19.5094 22.0214 20.7375 20.7886C21.9656 19.5605 22.35 18.0698 22.4344 16.387C22.5328 14.6526 22.5328 9.45889 22.4344 7.72451ZM20.1938 18.2479C19.8281 19.1667 19.1203 19.8745 18.1969 20.2448C16.8141 20.7933 13.5328 20.6667 12.0047 20.6667C10.4766 20.6667 7.19065 20.7886 5.81252 20.2448C4.89377 19.8792 4.18596 19.1714 3.81565 18.2479C3.26721 16.8651 3.39377 13.5839 3.39377 12.0558C3.39377 10.5276 3.2719 7.2417 3.81565 5.86357C4.18127 4.94482 4.88908 4.23701 5.81252 3.8667C7.19533 3.31826 10.4766 3.44482 12.0047 3.44482C13.5328 3.44482 16.8188 3.32295 18.1969 3.8667C19.1156 4.23232 19.8235 4.94014 20.1938 5.86357C20.7422 7.24639 20.6156 10.5276 20.6156 12.0558C20.6156 13.5839 20.7422 16.8698 20.1938 18.2479Z"
    fill="#D4D4D4" />
</svg>