<svg width="36" height="36" fill="none" xmlns="http://www.w3.org/2000/svg">
  <path d="M18 1.125c-7.369 0-13.612 4.725-15.919 11.25H33.92C31.613 5.85 25.369 1.125 18 1.125z" fill="#ED4C5C" />
  <path d="M18 34.875a16.82 16.82 0 0015.919-11.25H2.08a16.82 16.82 0 0015.92 11.25z" fill="#3E4347" />
  <path
    d="M2.081 12.375A16.871 16.871 0 001.125 18c0 1.969.337 3.881.956 5.625H33.92A16.87 16.87 0 0034.875 18a16.87 16.87 0 00-.956-5.625H2.08z"
    fill="#F9F9F9" />
  <path
    d="M17.213 14.119c.168-.113.28 0 .393.112.057.113.057.45-.056.844-.056.225-.225.45-.337.619.225 0 .506-.057.787-.169.281.112.506.169.788.169-.113-.225-.225-.675-.17-1.013 0-.506-.055-.675-.168-.787-.112-.113-.394-.169-.562-.169-.113 0-.113.056-.113.056-.225-.056-.394-.056-.506 0-.113.113-.113.394-.056.338"
    fill="#fff" />
  <path
    d="M20.981 15.806c-.112-.618-.731-.45-1.237-.168-.225.112-.45.225-.675.225H18.9c-.281 0-.619-.057-.9-.17a2.547 2.547 0 01-.9.17h-.113c-.28 0-.506-.113-.73-.282-.45-.225-1.07-.393-1.238.169.112-.056.225-.169.281-.169l-.225 5.4.113-.112.224-5.232c.057.057.282.282.338.282l-.169 4.556.169-.169.169-4.331c.056.056.225.169.281.225l-.169 3.769.45-.394.45-1.519c-.393-.844-.337-1.575-.337-1.575h.112c.282 0 .9-.169 1.181-.337.057 0 .057-.056.113-.056 0 .056.056.056.113.112.28.169.9.338 1.18.338h.113s.056.73-.337 1.575l.393 1.462.45.394-.168-3.713c.056-.056.169-.169.281-.225l.169 4.219.169.169-.17-4.5c.057-.056.282-.225.338-.282l.225 5.175.113.113-.225-5.344c.056.056.225.169.337.225"
    fill="#fff" />
  <path
    d="M17.494 16.706V18.9s0 .056.056.056c.056.113.169.169.225.282l.169.168.169-.168.28-.282V16.82c-.168-.056-.337-.113-.45-.225-.056-.056-.224 0-.45.112"
    fill="#fff" />
  <path
    d="M20.419 21.319c0-.281-.282-.281-.506-.225-.057 0-.057 0-.113.056l-.338-1.237 1.857 1.8-.225-5.85c-.056-.9-.788-.675-1.294-.338-.281.169-.506.281-.788.281-.393-.675-.168-1.575-.45-1.8-.112-.112-.506-.281-.787-.281-.169 0-.112.113-.112.113-.282-.057-.507-.057-.62.056-.112.056 0 .618.057.506.169-.169.225-.113.337.056.113.169-.112.844-.393 1.35-.338 0-.619-.112-.9-.281-.563-.338-1.294-.506-1.294.338l-.225 5.793 1.856-1.743-.337 1.18c-.056 0-.056 0-.113-.055-.225-.057-.506-.057-.506.224-.338-.056-.45.45-.113.563 0 .169 0 .281.225.281.507.169 1.407.225 2.307.225.9 0 1.8-.056 2.306-.225.225-.056.225-.169.225-.281.45-.113.281-.619-.056-.506zM17.55 18.9c0-.056 0-.056 0 0l-.056-.056v-2.138c.225-.056.393-.112.506-.225.113.113.281.169.45.225v2.138c-.113.112-.169.225-.281.281l-.169.169-.169-.169c-.112-.056-.168-.169-.281-.225m0-3.769c.113-.393.113-.731.056-.844-.112-.112-.225-.225-.394-.112-.056.056-.056-.225.057-.281.112-.056.281-.056.506 0 0 0 0-.113.113-.056.168 0 .506.112.562.168.056.056.169.281.169.788 0 .337.056.787.169 1.012-.226 0-.507-.056-.788-.168a1.985 1.985 0 01-.788.168c.113-.225.282-.45.338-.675zm-1.463 5.006l.17-3.768a1.228 1.228 0 00-.282-.225l-.225 4.275-.169.168.169-4.556c-.056-.056-.281-.225-.338-.281l-.225 5.231-.112.113.225-5.4c-.056 0-.225.056-.281.168.168-.562.787-.393 1.237-.112.225.169.506.225.732.281h.112c.281 0 .563-.056.9-.168.337.112.619.168.9.168h.169c.225-.056.45-.112.675-.225.506-.281 1.125-.45 1.237.169-.112-.056-.281-.169-.337-.169l.225 5.344-.113-.112-.225-5.288c-.056.056-.281.281-.337.281l.169 4.5-.17-.168-.168-4.22c-.056.057-.225.17-.281.226l.169 3.712-.45-.393-.394-1.463c.393-.844.337-1.575.337-1.575h-.112c-.282 0-.9-.112-1.181-.337-.057 0-.057-.057-.113-.113 0 0-.056.056-.113.056-.28.169-.9.338-1.18.338h-.113s-.056.731.337 1.575l-.45 1.518-.394.45M18 21.262h-.619l.394-1.912c.056.056.113.112.225.169.056-.056.169-.113.225-.169l.45 1.912H18"
    fill="#C09300" />
</svg>