<svg width="36" height="36" fill="none" xmlns="http://www.w3.org/2000/svg">
  <g clip-path="url(#prefix__clip0_2487_45)">
    <path d="M18.08 36c9.942 0 18-8.059 18-18s-8.058-18-18-18c-9.94 0-18 8.059-18 18s8.06 18 18 18z" fill="#F0F0F0" />
    <path
      d="M3.802 7.041A17.934 17.934 0 00.7 13.305h9.364L3.802 7.04zM35.46 13.305a17.937 17.937 0 00-3.1-6.264l-6.263 6.264h9.364zM.7 22.696a17.936 17.936 0 003.102 6.263l6.263-6.263H.7zM29.04 3.721a17.934 17.934 0 00-6.264-3.1v9.363l6.264-6.263zM7.122 32.279a17.935 17.935 0 006.263 3.1v-9.363l-6.263 6.263zM13.385.62a17.936 17.936 0 00-6.263 3.1l6.263 6.264V.62zM22.776 35.38a17.936 17.936 0 006.264-3.1l-6.264-6.264v9.364zM26.097 22.696l6.263 6.263a17.936 17.936 0 003.1-6.263h-9.363z"
      fill="#0052B4" />
    <path
      d="M35.928 15.652h-15.5V.152a18.18 18.18 0 00-4.695 0v15.5H.233a18.18 18.18 0 000 4.696h15.5v15.5a18.17 18.17 0 004.696 0v-15.5h15.5a18.17 18.17 0 000-4.696z"
      fill="#D80027" />
    <path
      d="M22.776 22.696l8.033 8.032c.37-.37.721-.755 1.058-1.156l-6.877-6.876h-2.213zM13.385 22.696l-8.032 8.032c.37.37.755.722 1.155 1.058l6.877-6.877v-2.213zM13.385 13.305L5.353 5.271c-.37.37-.722.755-1.058 1.156l6.877 6.876h2.213zM22.776 13.305l8.033-8.033c-.37-.37-.756-.722-1.156-1.058l-6.877 6.877v2.214z"
      fill="#D80027" />
  </g>
  <defs>
    <clipPath id="prefix__clip0_2487_45">
      <path fill="#fff" transform="translate(.08)" d="M0 0h36v36H0z" />
    </clipPath>
  </defs>
</svg>