<svg width="24" height="24" fill="none" xmlns="http://www.w3.org/2000/svg">
  <g clip-path="url(#prefix__clip0_2296_83)">
    <path
      d="M6.835 21.122H2.482V7.102h4.353v14.02zM4.656 5.189c-1.392 0-2.521-1.153-2.521-2.546a2.521 2.521 0 115.043 0c0 1.393-1.13 2.546-2.522 2.546zM23.13 21.122h-4.344v-6.825c0-1.627-.033-3.713-2.264-3.713-2.263 0-2.61 1.767-2.61 3.595v6.943h-4.35V7.102h4.176v1.912h.061C14.38 7.912 15.8 6.75 17.92 6.75c4.406 0 5.216 2.901 5.216 6.67v7.702h-.005z"
      fill="#D4D4D4" />
  </g>
  <defs>
    <clipPath id="prefix__clip0_2296_83">
      <path fill="#fff" transform="translate(.635 .122)" d="M0 0h24v24H0z" />
    </clipPath>
  </defs>
</svg>