<svg width="160" height="62" fill="none" xmlns="http://www.w3.org/2000/svg">
  <path
    d="M56.4 2.6c-8.8 4.6-12.2 9.2-9.2 12.2 2.7 2.7 6.7.2 11.1-7.1C60.1 4.9 62.2 0 61.6 0c-.2 0-2.5 1.2-5.2 2.6zm-1.1 7c-.3.8-1.2 1.4-1.9 1.4-2 0-3-3-1.3-4 1.7-1.1 4 .7 3.2 2.6zm-13.3.9c-2.5 2.7-1.2 3.5 1.4.9C44.8 10 45.6 8 44.7 8c-.2 0-1.4 1.1-2.7 2.5zm-23 1.4C12.1 14 5.9 19.3 2.4 26c-2.8 5.3-2.5 16.2.5 21.9l2.3 4.4 2-2.1c2-2 2-2.2.4-6.1-4.1-10.3.5-21.3 10.6-25.6 4.3-1.7 9.8-2 9.8-.5 0 .6-1.9 3.7-4.2 6.8-2.2 3.1-4.6 6.4-5.1 7.2-.6.8 3.3-2.8 8.6-8S37 14.2 37 13.9c0-1-8.4-2.9-12.2-2.8-1.8 0-4.4.4-5.8.8zm31.6 6.7c-2.6 2.6-1.8 3.9.9 1.4 1.4-1.3 2.5-2.5 2.5-2.7 0-.9-2-.1-3.4 1.3zm-4.9 8.2c-1.3 1.4-1.5 3-1.1 6.9 1.5 12-7.4 22.2-19.1 22.3-7.9 0-7.7-1.2 1-10.2 4.4-4.5 7.3-7.7 6.5-7.1-5.8 4.1-22 16.5-22.5 17.3-.3.5 1.4 1.9 3.7 3.2 5.9 3.1 16.6 3.1 22.3.1 11-5.9 16.7-18.4 13.5-29.8-1.4-5-1.9-5.3-4.3-2.7z"
    fill="#fff" />
  <path
    d="M32.5 26.7C18.7 41.8 13.3 47.8 10.1 51.5l-2.6 3 3-2.6c5.1-4.3 24.7-22.1 30.9-28.1 5.2-4.9 5.8-5.8 4.7-7.2-.8-.9-1.7-1.6-2.1-1.6-.4 0-5.6 5.3-11.5 11.7z"
    fill="#FFCB06" />
  <path
    d="M81.8 38.64V23.8h8.6v-2.32H79.36V41h11.36v-2.36H81.8zm7.88-6.56v-2.24H83v2.24h6.68zm13.156-.8v2.36h7.8c-.36 1.56-1.2 2.88-2.48 3.84s-2.84 1.44-4.6 1.44c-2.24 0-4-.72-5.4-2.16-1.36-1.4-2.04-3.28-2.04-5.52v-.12c-.76.32-1.68.84-2.44 1.56.2 1.36.6 2.6 1.2 3.72.84 1.56 2.04 2.76 3.56 3.64 1.52.84 3.2 1.28 5.12 1.28 1.36 0 2.64-.24 3.88-.72 1.16-.52 2.2-1.2 3.04-2.08.84-.88 1.52-1.92 2.04-3.2.48-1.2.76-2.56.8-4.04h-10.48zm-4.64-5.56c1.4-1.44 3.2-2.16 5.36-2.16 1.64 0 3.08.44 4.36 1.32 1.28.84 2.12 2 2.56 3.4h2.52c-.44-2.08-1.56-3.76-3.32-5.12-1.8-1.32-3.84-1.96-6.2-1.96-1.88 0-3.56.4-5.08 1.24-1.48.92-2.68 2.08-3.52 3.64-.84 1.52-1.24 3.24-1.24 5.16v.16c.72-.48 1.64-1.08 2.6-1.52.2-1.64.88-3.04 1.96-4.16zm21.257 5.24c.56.28 1.48.56 2.64.88l1.6-2.04c-.36-.12-.68-.16-.88-.24-.28-.04-.56-.16-.96-.28-.4-.12-.72-.2-.92-.32-.2-.12-.44-.24-.72-.4-.24-.16-.48-.32-.6-.52s-.24-.44-.36-.68a2.58 2.58 0 01-.12-.8c0-.92.4-1.64 1.16-2.16.8-.56 1.76-.84 2.96-.84 1.24 0 2.24.32 3 .92.76.64 1.16 1.48 1.16 2.52h2.44c0-1.76-.6-3.16-1.76-4.2-1.16-1.08-2.76-1.56-4.76-1.56-2.04 0-3.64.48-4.84 1.44-1.24.96-1.8 2.28-1.8 4 0 .28 0 .6.08.88.2 1.52 1.12 2.64 2.68 3.4zm10.84 3.36c-.28-1.48-1.24-2.64-2.84-3.36-.48-.24-1.16-.44-2.04-.72l-1.56 2.04c.16.04.44.12.8.2.32.08.6.16.76.24.16.04.4.16.68.28.28.12.48.2.6.32.16.12.32.24.48.4.2.16.28.32.4.48.04.16.16.36.2.56.08.24.08.48.08.72 0 1-.4 1.84-1.24 2.44-.8.64-1.88.92-3.12.92-1.4 0-2.52-.36-3.4-1.04-.84-.68-1.28-1.64-1.28-2.8h-2.48c0 1.88.64 3.4 1.96 4.56 1.32 1.12 3.08 1.68 5.24 1.68 1.28 0 2.44-.2 3.48-.68a5.725 5.725 0 002.48-1.96c.6-.88.92-1.92.92-3.16 0-.4-.04-.76-.12-1.12zm12.586-12.76l-.08 5.88 2.76 6.64h-7.56l3.72-9.24v-3.36h-1.16L132.599 41h2.6l1.88-4.68h9.4l1.92 4.68h2.64l-8.16-19.44z"
    fill="#fff" />
</svg>