<svg width="24" height="24" fill="none" xmlns="http://www.w3.org/2000/svg">
  <g clip-path="url(#prefix__clip0_2296_85)">
    <path
      d="M22.168 7.233c.015.214.015.427.015.64 0 6.502-4.95 13.995-13.995 13.995A13.9 13.9 0 01.635 19.66c.396.045.776.06 1.188.06a9.85 9.85 0 006.106-2.1 4.927 4.927 0 01-4.599-3.412c.305.046.61.076.93.076.44 0 .882-.06 1.294-.167a4.92 4.92 0 01-3.945-4.828v-.06a4.954 4.954 0 002.224.624A4.915 4.915 0 011.64 5.756c0-.914.243-1.751.67-2.482A13.981 13.981 0 0012.452 8.42a5.547 5.547 0 01-.122-1.127 4.917 4.917 0 014.919-4.919c1.416 0 2.695.594 3.594 1.554a9.683 9.683 0 003.122-1.188 4.905 4.905 0 01-2.163 2.71 9.86 9.86 0 002.833-.76 10.575 10.575 0 01-2.467 2.542z"
      fill="#D4D4D4" />
  </g>
  <defs>
    <clipPath id="prefix__clip0_2296_85">
      <path fill="#fff" transform="translate(.635 .122)" d="M0 0h24v24H0z" />
    </clipPath>
  </defs>
</svg>